<?xml version="1.0" standalone="no"?>
<!DOCTYPE svg PUBLIC "-//W3C//DTD SVG 20010904//EN"
 "http://www.w3.org/TR/2001/REC-SVG-20010904/DTD/svg10.dtd">
<svg version="1.0" xmlns="http://www.w3.org/2000/svg"
 width="1280.000000pt" height="1280.000000pt" viewBox="0 0 1280.000000 1280.000000"
 preserveAspectRatio="xMidYMid meet">
<metadata>
Created by potrace 1.16, written by Peter Selinger 2001-2019
</metadata>
<g transform="translate(0.000000,1280.000000) scale(0.100000,-0.100000)"
fill="#000000" stroke="none">
<path d="M0 6400 l0 -6400 6400 0 6400 0 0 6400 0 6400 -6400 0 -6400 0 0
-6400z m2390 1965 l0 -195 -112 0 c-219 -1 -318 -29 -392 -111 -93 -103 -99
-224 -42 -849 65 -704 67 -804 27 -963 -47 -182 -151 -313 -313 -391 -51 -25
-114 -50 -140 -57 -27 -6 -48 -15 -48 -19 0 -3 28 -15 62 -24 221 -62 378
-219 440 -443 35 -125 29 -358 -21 -903 -47 -506 -55 -713 -28 -802 24 -78 71
-137 137 -170 74 -38 138 -48 296 -48 l134 0 0 -196 0 -196 -222 5 c-252 5
-322 18 -457 84 -105 52 -214 160 -264 263 -58 118 -69 175 -75 365 -5 187 4
329 49 780 36 360 48 637 29 716 -44 186 -179 309 -408 371 l-82 23 2 174 3
174 75 19 c226 58 372 193 411 378 17 79 6 363 -26 670 -73 721 -74 963 -2
1135 58 139 164 253 302 320 128 63 238 81 513 84 l152 1 0 -195z m8675 136
c240 -63 407 -216 473 -432 50 -163 49 -367 -4 -909 -82 -846 -77 -914 74
-1072 67 -70 191 -137 306 -164 l76 -18 -2 -174 -3 -174 -85 -25 c-234 -67
-372 -194 -411 -381 -15 -74 -7 -329 20 -597 82 -811 85 -991 23 -1180 -69
-209 -238 -358 -472 -415 -66 -16 -133 -22 -297 -27 l-213 -6 0 200 0 201 173
4 c164 3 175 5 235 32 34 16 77 45 94 64 97 111 101 233 33 967 -45 474 -52
747 -22 855 23 87 87 215 136 271 61 71 165 136 276 174 53 18 99 36 101 38 3
3 -28 15 -68 27 -231 70 -375 212 -440 435 -36 124 -31 363 17 870 31 318 39
445 39 620 1 211 0 222 -23 273 -33 72 -97 127 -180 153 -49 15 -105 22 -218
26 l-153 6 0 195 0 195 218 -6 c176 -4 232 -9 297 -26z m-3655 -1513 c89 -27
163 -107 179 -193 l8 -45 -58 0 c-53 0 -59 2 -59 21 0 12 -10 39 -22 60 -74
132 -338 92 -338 -51 0 -70 58 -119 185 -155 230 -66 326 -177 284 -330 -16
-57 -93 -129 -160 -149 -201 -60 -429 42 -447 199 l-5 45 56 0 55 0 6 -35 c25
-132 250 -183 353 -80 27 27 33 41 33 74 0 84 -49 127 -185 166 -216 61 -316
167 -286 301 33 147 220 227 401 172z m-1866 0 c2 -1 67 -172 145 -378 79
-206 152 -397 162 -423 l19 -48 -61 3 -62 3 -37 105 -37 105 -181 3 -180 2
-38 -110 -39 -110 -57 0 c-32 0 -58 3 -58 6 0 22 316 832 329 842 14 12 87 12
95 0z m-902 -375 l3 -378 203 -3 202 -2 0 -45 0 -45 -260 0 -260 0 0 425 0
425 55 0 55 0 2 -377z m1457 35 c64 -185 119 -339 121 -341 3 -3 58 150 124
339 l119 344 63 0 63 0 -24 -62 c-13 -35 -83 -226 -157 -425 l-133 -363 -51 0
c-40 0 -53 4 -59 18 -22 55 -305 825 -305 828 0 3 28 4 62 2 l61 -3 116 -337z
m731 -83 l0 -425 -55 0 -55 0 0 425 0 425 55 0 55 0 0 -425z m1020 245 l0
-180 215 0 215 0 0 180 0 180 60 0 60 0 0 -425 0 -425 -60 0 -60 0 0 195 0
195 -215 0 -215 0 0 -195 0 -195 -55 0 -55 0 0 425 0 425 55 0 55 0 0 -180z
m-4211 -1210 c83 -14 129 -39 180 -96 35 -40 71 -119 71 -156 0 -5 -25 -8 -57
-6 -56 3 -56 3 -70 43 -28 81 -94 126 -185 124 -98 -1 -162 -42 -202 -129 -19
-40 -21 -64 -21 -205 0 -147 2 -164 24 -213 31 -69 88 -118 156 -133 67 -15
148 -5 200 24 l40 23 3 97 3 97 -101 0 -100 0 0 50 0 50 155 0 155 0 0 -164 0
-164 -32 -28 c-63 -52 -135 -78 -234 -82 -247 -11 -379 121 -391 394 -9 186
19 293 99 380 56 61 123 91 233 103 6 0 39 -4 74 -9z m2470 0 c83 -14 129 -39
180 -96 35 -40 71 -119 71 -156 0 -5 -25 -8 -57 -6 -56 3 -56 3 -70 43 -28 81
-94 126 -185 124 -98 -1 -162 -42 -202 -129 -19 -40 -21 -64 -21 -205 0 -147
2 -164 24 -213 31 -69 88 -118 156 -133 67 -15 148 -5 200 24 l40 23 3 97 3
97 -101 0 -100 0 0 50 0 50 155 0 155 0 0 -164 0 -164 -32 -28 c-63 -52 -135
-78 -234 -82 -247 -11 -379 121 -391 394 -9 186 19 293 99 380 56 61 123 91
233 103 6 0 39 -4 74 -9z m-1685 -12 c2 -1 67 -172 145 -378 79 -206 152 -397
162 -423 l19 -48 -61 3 -62 3 -37 105 -37 105 -181 3 -180 2 -38 -110 -39
-110 -57 0 c-32 0 -58 3 -58 6 0 22 316 832 329 842 14 12 87 12 95 0z m2616
-10 c12 -28 180 -637 181 -658 1 -8 5 5 11 30 5 25 39 179 75 343 l67 297 59
0 c43 0 58 -3 54 -12 -2 -7 -49 -199 -103 -426 l-99 -413 -54 3 -54 3 -88 314
c-49 173 -89 321 -89 330 0 41 -24 -30 -110 -326 l-93 -323 -54 0 c-29 0 -53
2 -53 3 0 2 -45 189 -100 416 -55 227 -100 416 -100 422 0 5 25 9 55 9 l54 0
10 -37 c5 -21 37 -162 71 -313 34 -151 64 -286 67 -300 5 -23 7 -22 14 12 13
57 168 600 179 626 8 18 18 22 50 22 32 0 42 -4 50 -22z m894 10 c2 -1 67
-172 145 -378 79 -206 152 -397 162 -423 l19 -48 -61 3 -62 3 -37 105 -37 105
-181 3 -180 2 -38 -110 -39 -110 -57 0 c-32 0 -58 3 -58 6 0 22 316 832 329
842 14 12 87 12 95 0z m-2739 -319 l210 -321 3 321 2 321 60 0 60 0 0 -425 0
-426 -62 3 -61 3 -211 324 -211 324 -3 -327 -2 -326 -55 0 -55 0 0 425 0 425
58 0 58 0 209 -321z m3520 0 l210 -321 3 321 2 321 60 0 60 0 0 -425 0 -426
-62 3 -61 3 -211 324 -211 324 -3 -327 -2 -326 -55 0 -55 0 0 425 0 425 58 0
58 0 209 -321z m655 -104 l0 -425 -55 0 -55 0 0 425 0 425 55 0 55 0 0 -425z"/>
<path d="M5483 6824 c-4 -10 -35 -95 -69 -189 l-62 -170 135 -3 c75 -1 138 -1
140 1 3 4 -125 367 -133 376 -2 2 -7 -5 -11 -15z"/>
<path d="M4363 5424 c-4 -10 -35 -95 -69 -189 l-62 -170 135 -3 c75 -1 138 -1
140 1 3 4 -125 367 -133 376 -2 2 -7 -5 -11 -15z"/>
<path d="M7873 5424 c-4 -10 -35 -95 -69 -189 l-62 -170 135 -3 c75 -1 138 -1
140 1 3 4 -125 367 -133 376 -2 2 -7 -5 -11 -15z"/>
</g>
</svg>
